<svg width="19" height="20" viewBox="0 0 19 20" fill="none" xmlns="http://www.w3.org/2000/svg">
<path d="M2.72412 17.125H4.12412L12.7491 8.5L11.3491 7.1L2.72412 15.725V17.125ZM17.0241 7.05L12.7741 2.85L14.1741 1.45C14.5575 1.06667 15.0285 0.875 15.5871 0.875C16.1458 0.875 16.6165 1.06667 16.9991 1.45L18.3991 2.85C18.7825 3.23333 18.9825 3.696 18.9991 4.238C19.0158 4.78 18.8325 5.24233 18.4491 5.625L17.0241 7.05ZM15.5741 8.525L4.97412 19.125H0.724121V14.875L11.3241 4.275L15.5741 8.525ZM12.0491 7.8L11.3491 7.1L12.7491 8.5L12.0491 7.8Z" fill="black"/>
</svg>
